<?xml version="1.0" encoding="UTF-8" standalone="no"?>
<svg
   viewBox="0 0 916 554"
   version="1.1"
   id="svg11"
   sodipodi:docname="kys_light.svg"
   width="916"
   height="554"
   inkscape:version="1.4 (e7c3feb100, 2024-10-09)"
   xmlns:inkscape="http://www.inkscape.org/namespaces/inkscape"
   xmlns:sodipodi="http://sodipodi.sourceforge.net/DTD/sodipodi-0.dtd"
   xmlns="http://www.w3.org/2000/svg"
   xmlns:svg="http://www.w3.org/2000/svg">
  <sodipodi:namedview
     id="namedview11"
     pagecolor="#ffffff"
     bordercolor="#000000"
     borderopacity="0.25"
     inkscape:showpageshadow="2"
     inkscape:pageopacity="0.0"
     inkscape:pagecheckerboard="0"
     inkscape:deskcolor="#d1d1d1"
     inkscape:zoom="1.1714286"
     inkscape:cx="490"
     inkscape:cy="350"
     inkscape:window-width="1920"
     inkscape:window-height="1022"
     inkscape:window-x="0"
     inkscape:window-y="0"
     inkscape:window-maximized="1"
     inkscape:current-layer="svg11" />
  <defs
     id="defs7">
    <style
       id="style1">
      .cls-1 {
        fill: none;
      }

      .cls-1, .cls-2 {
        stroke: #000;
        stroke-miterlimit: 10;
        stroke-width: 19px;
      }

      .cls-2 {
        fill: url(#linear-gradient);
      }
    </style>
    <linearGradient
       id="linear-gradient"
       x1="488.28"
       y1="404.57001"
       x2="766.62"
       y2="126.23"
       gradientTransform="rotate(-7.17,494.66339,458.9893)"
       gradientUnits="userSpaceOnUse">
      <stop
         offset="0"
         stop-color="#00a8de"
         id="stop1" />
      <stop
         offset=".2"
         stop-color="#333391"
         id="stop2" />
      <stop
         offset=".31"
         stop-color="#94218c"
         id="stop3" />
      <stop
         offset=".4"
         stop-color="#e91388"
         id="stop4" />
      <stop
         offset=".6"
         stop-color="#eb2d2e"
         id="stop5" />
      <stop
         offset=".8"
         stop-color="#fde92b"
         id="stop6" />
      <stop
         offset="1"
         stop-color="#009e54"
         id="stop7" />
    </linearGradient>
  </defs>
  <g
     id="Knife"
     transform="translate(-35.3999,-101.24974)">
    <path
       class="cls-2"
       d="m 529.2,435.6 c 27.1,-37.59 213.6,-288.59 236.07,-318.84 0.94,-1.26 0.02,-3.05 -1.55,-3.01 -12.29,0.26 -57.65,2.96 -108.51,37.73 -61.04,41.73 -103.28,79.03 -142.71,125.2 -39.43,46.17 -65.57,83.54 -64.53,92.34 1.15,9.71 56.56,54.23 73.41,67.66 2.44,1.94 6,1.45 7.82,-1.08 z"
       id="path7"
       style="fill:url(#linear-gradient)" />
    <path
       class="cls-1"
       d="m 375.89,641.17 -14.16,-10.61 c -7.09,-5.31 -9.65,-14.75 -6.24,-22.91 10.62,-25.38 33.27,-70.02 51.53,-97.75 24.44,-37.12 61.18,-79.82 68.72,-87.49 7.54,-7.67 9.76,-14.24 17.65,-8.52 7.89,5.72 31.99,23.94 31.99,23.94 0,0 -8.37,14.1 -16.29,29.43 -7.93,15.33 -59.13,91.44 -68.67,105.18 -7.23,10.42 -32.26,49.75 -47.5,65.8 -4.7,4.95 -11.56,7.03 -17.03,2.94 z"
       id="path8" />
  </g>
  <g
     id="Layer_3"
     data-name="Layer 3"
     transform="translate(-35.3999,-101.24974)">
    <path
       d="m 209.46,277.84 c 9.45,-5.92 28.38,-19.13 56.78,-39.63 8.29,-6.07 30.98,-21.25 68.07,-45.56 15.15,-9.74 34.55,-21.04 58.2,-33.88 14.36,-7.86 24.28,-11.97 29.76,-12.34 3.19,-0.22 6.36,0.83 9.5,3.13 3.66,3.19 5.66,7.41 6.02,12.65 0.44,6.39 -2.07,11.72 -7.51,15.98 -2.6,2.24 -9.48,5.58 -20.64,10 -71.29,33.52 -129.73,72.46 -175.29,116.83 -4.94,25.09 -8.43,49.52 -10.47,73.26 -4.1,50.71 -4.98,93.29 -2.63,127.74 0.84,12.32 3.02,21.51 6.52,27.58 3.51,6.07 8.34,8.89 14.5,8.47 12.09,-0.82 34.42,-27.9 67.01,-81.25 6.19,-10.05 11.34,-15.21 15.45,-15.5 5.25,-0.36 8.09,2.66 8.53,9.04 0.62,9.13 -8.01,28.74 -25.9,58.84 -25.66,43.93 -50.24,66.69 -73.73,68.29 -19.63,1.34 -33.35,-8.27 -41.16,-28.82 -4.99,-12.72 -8.17,-29.01 -9.52,-48.86 -2.71,-39.7 -0.58,-82.36 6.4,-128 6.96,-45.86 11.09,-74.34 12.4,-85.43 -11.18,24.38 -32.28,66.04 -63.33,125.01 -36.83,74.95 -57.9,134.04 -63.21,177.26 -2.25,14.14 -8.16,21.53 -17.74,22.18 -6.38,0.44 -11.5,-2.2 -15.32,-7.89 -2.06,-3.3 -3.27,-7.57 -3.62,-12.82 -1.21,-17.8 6.02,-47.86 21.7,-90.19 8.92,-23.76 21.35,-53.26 37.28,-88.5 5.99,-13.01 19.58,-38.93 40.77,-77.74 46.4,-85.91 75.04,-148.15 85.94,-186.72 4.1,-13.8 7.18,-22.38 9.25,-25.73 3.75,-5.53 8.59,-8.49 14.52,-8.9 3.19,-0.22 6.11,0.62 8.77,2.5 3.62,2.73 5.6,6.49 5.93,11.29 1.35,19.85 -16.38,69.08 -53.19,147.69 z"
       id="path9" />
    <path
       d="m 636.92,488.13 c 12.34,0.33 18.38,5.52 18.12,15.58 -0.2,7.54 -6.07,13.11 -17.6,16.69 -19.85,6.56 -30.02,18.99 -30.5,37.28 -0.39,14.63 5.02,26.21 16.23,34.75 9.64,7.12 22.01,10.88 37.1,11.28 30.18,0.8 56.81,-7.29 79.92,-24.29 14.47,-10.82 21.94,-24.81 22.39,-41.95 0.28,-10.51 -1.52,-20.06 -5.41,-28.63 -4.11,-8.8 -10.45,-19.95 -19.01,-33.45 -13.17,-20.94 -24.21,-39.99 -33.13,-57.16 -10.02,-19.02 -14.78,-37.57 -14.3,-55.63 1.14,-42.75 23.35,-82.19 66.64,-118.33 22.92,-18.83 48.03,-33.95 75.33,-45.35 22.66,-9.23 44.4,-13.57 65.21,-13.02 13.49,0.36 24.82,4.21 34.01,11.54 11.2,8.77 16.61,20.46 16.22,35.09 -0.61,22.86 -13.61,47.22 -39.01,73.08 -23.98,24.3 -51.73,43.92 -83.24,58.86 -15.76,7.36 -27.63,10.93 -35.63,10.72 -5.26,-0.14 -9.89,-2.44 -13.89,-6.89 -2.66,-3.04 -3.95,-6.4 -3.85,-10.05 0.23,-8.46 7.95,-15.11 23.18,-19.97 27.92,-9.09 52.75,-22.27 74.49,-39.54 28.04,-22.12 42.29,-41.77 42.75,-58.91 0.18,-6.63 -2.42,-12.08 -7.8,-16.34 -4.26,-3.31 -9.36,-5.05 -15.3,-5.21 -15.77,-0.42 -35.71,5.11 -59.81,16.59 -32.44,15.38 -58.14,35.63 -77.11,60.74 -16.6,21.75 -25.17,43.14 -25.73,64.17 -0.41,15.32 3.4,31.21 11.43,47.66 6.74,13.22 15.38,28.21 25.91,44.96 10.09,16.05 18.62,30.93 25.58,44.61 8.03,16.23 11.86,31.32 11.49,45.26 -0.72,26.98 -16.79,50.46 -48.2,70.44 -26.76,16.67 -56.71,24.57 -89.85,23.68 -32.69,-0.87 -58.05,-10.58 -76.09,-29.14 -13.57,-14.09 -20.13,-30.05 -19.65,-47.88 0.53,-19.89 7.61,-36.4 21.22,-49.53 8.22,-8.02 17.87,-13.94 28.96,-17.76 7.62,-2.77 13.95,-4.09 18.98,-3.96 z"
       id="path10" />
    <path
       d="m 485.03,318.82 -31.65,18.05 7.27,-208.18 c 0.3,-8.56 7.48,-15.25 16.03,-14.95 v 0 c 8.56,0.3 15.25,7.48 14.95,16.03 l -6.6,189.04 z"
       id="path11" />
  </g>
</svg>
